<?xml version="1.0" encoding="utf-8"?>
<!-- Generator: Adobe Illustrator 16.0.0, SVG Export Plug-In . SVG Version: 6.00 Build 0)  -->
<!DOCTYPE svg PUBLIC "-//W3C//DTD SVG 1.1//EN" "http://www.w3.org/Graphics/SVG/1.1/DTD/svg11.dtd">
<svg version="1.1" id="Layer_1" xmlns="http://www.w3.org/2000/svg" xmlns:xlink="http://www.w3.org/1999/xlink" x="0px" y="0px"
	 width="1500px" height="1500px" viewBox="0 0 1500 1500" enable-background="new 0 0 1500 1500" xml:space="preserve">
<g>
	<path d="M715.317,267.622l517.064,599.04h210.072c4.902-29.209,7.984-58.695,9.227-88.287h-30.133L715.317,267.622z"/>
	<path fill="#CC2229" d="M1449.534,688.043L690.101,248.711l636.871,151.334c0,0,75.405,75.454,110.891,207.7
		C1443.288,634.266,1447.185,661.076,1449.534,688.043z"/>
	<path d="M425.264,696.401L91.712,504.923c-16.501,44.291-28.457,90.146-35.687,136.855l476.438,111.374L425.264,696.401z"/>
	<path fill="#CC2229" d="M48.861,710.302l483.602,42.85L55.483,853.57c-5.146-34.283-7.741-68.904-7.766-103.574
		C47.718,736.67,48.126,723.453,48.861,710.302z"/>
	<path d="M422.041,1315.404l-49.195-28.027l44.72-78.453l48.504,27.629l-8.185,14.387l-31.877-18.168l-9.377,16.457l30.409,17.35
		l-8.2,14.354l-30.417-17.318l-10.754,18.871l32.57,18.561l-8.198,14.361V1315.404z M1098.991,1315.096l-18.805,8.416
		l-13.041-13.742l-31.327,14.027l2.037,18.65l-18.493,8.268l-8.625-95.059l20.256-9.051L1098.991,1315.096L1098.991,1315.096z
		 M1029.925,1270.701l4.057,36.646l21.575-9.67L1029.925,1270.701L1029.925,1270.701z M998.027,1279.152l-31.977,10.861
		l6.454,19.045l31.979-10.844l5.318,15.67l-31.946,10.863l11.908,35.094l-18.119,6.145l-29.048-85.498l50.097-17.025l5.336,15.689
		H998.027z M933.528,1376.949l-15.83,2.957l-52.352-49.072l10.646,56.895l-18.819,3.506l-16.598-88.762l17.248-3.25l50.424,46.758
		l-10.16-54.256l18.835-3.541L933.528,1376.949z M849.4,1392.486l-20.565,1.27l-7.405-17.434l-34.251,2.137l-4.617,18.201
		l-20.238,1.254l25.273-92.053l22.127-1.387L849.4,1392.486L849.4,1392.486z M800.298,1326.686l-9.052,35.727l23.596-1.469
		L800.298,1326.686L800.298,1326.686z M758.225,1306.389l-19.129-0.311l-1.486,90.275l19.128,0.324L758.225,1306.389z
		 M736.215,1323.537l-27.693-2.496l-6.666,73.449l-19.045-1.727l6.654-73.451l-27.468-2.496c0.492,3.391,0.374,6.813-0.242,9.994
		c-2.438,12.457-12.733,25.291-30.083,21.918l-14.904-2.906l-6.946,35.602l-18.779-3.658l16.6-85.123l-40.186,34.869l-12.258,40.412
		l-18.303-5.545l12.249-40.445l-15.028-54.764l22.184,6.738l7.724,31.945l24.264-22.26l19.947,6.035l0.092-0.492l33.582,6.537
		c12.307,2.398,18.352,11.072,19.947,20.258l1.419-15.623l74.427,6.756L736.215,1323.537L736.215,1323.537z M619.939,1329.592
		l8.727,1.693c8.608,1.678,12.416-1.354,13.709-7.988c1.47-7.533-1.646-10.955-11.806-12.969l-6.63-1.287L619.939,1329.592z
		 M526,1291.561c-6.779-9.02-14.336-15.314-23.01-19.08c-19.097-8.299-31.821,2.639-37.147,14.904
		c-6.38,14.713-0.777,28.689,13.776,34.992c4.334,1.879,6.713,2.346,12.934,2.154l4.216-9.719l-10.22-4.416l6.587-15.197
		l27.771,12.049l-14.694,33.906c-8.065,4.143-23.128,3.232-34.484-1.713c-24.58-10.643-34.374-35.826-23.637-60.617
		c10.971-25.256,35.853-35.107,60.942-24.211c10.528,4.566,19.538,11.789,24.83,18.852L526,1291.561L526,1291.561z"/>
	<path fill="#33A457" d="M338.087,1038.678H229.318v-78.615h20.7v59.111h67.388v-18.309h-41.973v-60.324h62.663v19.521h-41.966
		v20.104h41.966v58.512H338.087L338.087,1038.678z M1190.46,1159.879H963.02v59.699h-63.255v-20.699h42.565v-97.539h20.697v37.834
		h141.189v-17.744h-97.538v-60.291h97.538v20.697h-78.032v18.922h98.724v38.424h44.878v-93.998h20.683v114.695H1190.46
		L1190.46,1159.879z M880.193,1159.879h-62.672v-58.527h41.973c0.409-4.721,0.409-9.467,0-14.188h20.699V1159.879z
		 M851.795,1074.148h-15.946v-16.551h15.946V1074.148z M859.494,1139.182v-17.141h-21.282v17.141H859.494z M880.193,1074.148
		h-16.565v-16.551h16.565V1074.148z M738.819,1159.879h-19.504v-114.688h19.504V1159.879L738.819,1159.879z M693.69,1159.879
		H466.869v-20.697h37.238v-17.109c-3.91-0.684-7.911-0.684-11.822,0v-20.721h32.513v37.83h40.37v-37.248h62.664v37.248h45.169
		v-93.998h20.689V1159.879L693.69,1159.879z M589.415,1083.023h-16.549v-16.549h16.549V1083.023z M607.141,1122.633h-21.282v16.549
		h21.282V1122.633z M617.193,1083.023h-16.549v-16.549h16.549V1083.023z M443.114,1151.006c0,9.9-3.38,18.275-10.127,25.18
		c-6.737,6.848-15.145,10.289-25.215,10.289c-16.699,0-28.013-8.869-33.967-26.604h-7.547v79.203h-20.683v-99.893h28.648
		c6.813-15.756,17.833-23.646,33.072-23.646c10.679,0,19.32,3.266,25.916,9.803C439.817,1131.857,443.114,1140.408,443.114,1151.006
		z M418.869,1149.785c0-3.064-1.146-5.711-3.424-7.891c-2.18-2.166-5.145-3.355-8.216-3.297c-8.008,0-12.008,3.949-12.008,11.855
		c0,7.457,3.884,11.188,11.649,11.188C414.878,1161.641,418.869,1157.691,418.869,1149.785L418.869,1149.785z M1294.66,1008.547
		h-19.505V893.859h19.505V1008.547z M1250.157,1008.547h-89.839v-19.521h26.009v-93.982h19.487v93.982h23.662v-93.982h20.681
		V1008.547L1250.157,1008.547z M1145.431,1008.547H942.713V893.264h20.7v94.584h88.011v-15.965h-47.276v-20.697h67.974v38.441
		h53.797v-38.441h19.521v57.361H1145.431L1145.431,1008.547z M1099.9,931.689h-15.963v-15.965h15.963V931.689z M1127.688,931.689
		h-15.381v-15.965h15.381V931.689z M922.767,1008.547h-56.769v-20.699h37.85v-16.549c-4.13-0.459-8.295-0.459-12.425,0V950.6h31.344
		V1008.547z M784.951,1008.547H765.43V893.859h19.521V1008.547z M742.585,1008.547h-48.953c-2.433,4.617-4.812,9.268-7.138,13.941
		c-6.354,8.826-15.188,13.242-26.519,13.242c-11.339,0-19.947-4.307-25.842-12.916c-2.285-4.803-4.665-9.561-7.139-14.268H417.717
		v59.697h-63.256v-20.699h42.565v-97.537h20.69v37.832h41.881v-52.018h20.689v13.602h106.23v38.424h40.529
		c2.72-1.811,5.443-4.926,8.173-9.377c2.722-4.4,5.335-7.531,7.84-9.344c3.85-2.512,9.526-3.748,17.034-3.748
		c7.939,0,13.959,1.318,18.042,3.982c2.489,1.744,5.11,4.826,7.832,9.227c2.73,4.416,5.344,7.498,7.831,9.26h29.291v-92.805h19.512
		v113.504h-0.015H742.585z M671.649,999.119c0-7.34-4.051-11.004-12.166-11.004c-7.657,0-11.48,3.781-11.48,11.348
		c0,3.439,1.117,6.311,3.373,8.59c2.254,2.264,5.077,3.424,8.449,3.424c3.149,0,5.912-1.27,8.275-3.783
		C670.376,1005.422,671.651,1002.336,671.649,999.119z M565.818,970.104h-85.54v17.744h85.54V970.104z M280.752,1065.865h-16.549
		v-15.363h16.549V1065.865z M308.53,1065.865h-16.55v-15.363h16.55V1065.865z"/>
	<path d="M608.812,774.268l-28.247,1.436l-0.425,0.018l-0.427-0.018l-28.464-1.436h-0.25l-0.643-0.102l-27.653-4.057l-0.443-0.066
		l-0.443-0.107l-26.643-6.773l-0.367-0.082l-0.518-0.193l-25.582-9.344l-0.743-0.291l-24.606-11.455l-0.218-0.101l-0.592-0.368
		l-22.919-13.768l-0.435-0.259l-0.269-0.208l-21.382-15.664l-0.644-0.459l-0.065-0.076l-19.905-17.85l-0.526-0.568l-18.202-19.356
		l-0.325-0.358l-0.276-0.351l-16.039-21.073l-0.209-0.284l-0.249-0.384l-14.112-22.435l-0.351-0.551l-0.142-0.3l-11.747-23.979
		l-0.109-0.219l-0.217-0.566l-9.344-24.807l-0.175-0.458l-0.117-0.427l-6.904-26.15l-0.075-0.283l-0.101-0.636l-4.208-27.002
		l-0.142-0.917l-1.486-27.988l-0.017-0.467l0.017-0.451l1.486-27.571l0.142-0.917l4.208-27.127l0.101-0.634l0.075-0.285
		l6.904-26.008l0.083-0.292l0.209-0.551l9.344-24.965l0.217-0.577l0.135-0.266l11.756-23.846l0.226-0.452l0.19-0.325l14.12-22.626
		l0.218-0.343l0.274-0.367l16.039-20.958l0.268-0.351l0.3-0.326l18.194-19.479l0.218-0.217l0.425-0.384l19.896-17.652l0.343-0.3
		l0.259-0.192l21.384-15.804l0.367-0.276l0.376-0.226l22.919-13.785l0.417-0.25l0.358-0.167l24.598-11.59l0.561-0.258l0.259-0.101
		l25.591-9.209l0.384-0.134l0.426-0.117l26.644-6.813l0.427-0.109l0.458-0.074l27.654-4.15l0.6-0.091l0.285-0.017l28.471-1.554
		l0.484-0.025l0.469,0.025l28.245,1.554l0.176,0.008l0.634,0.1l27.721,4.15l0.543,0.084l0.376,0.099l26.634,6.813l0.435,0.117
		l0.385,0.134l25.607,9.209l0.451,0.159l0.4,0.2l24.23,11.59l0.166,0.074l0.577,0.343l23.128,13.785l0.367,0.218l0.385,0.284
		l21.372,15.804l0.604,0.492l19.963,17.652l0.459,0.409l0.209,0.226l18.002,19.479l0.267,0.274l0.274,0.368l16.065,20.958
		l0.274,0.367l0.21,0.343l14.11,22.626l0.274,0.435l0.143,0.309l11.958,23.846l0.19,0.376l0.201,0.543l9.151,24.957l0.258,0.743
		l7.063,26l0.043,0.184l0.132,0.775l4.359,27.128l0.125,0.868v0.083l1.402,27.571l0.035,0.434l-0.035,0.452l-1.402,27.987v0.15
		l-0.125,0.834l-4.359,27.003l-0.116,0.693l-0.059,0.226l-7.063,26.15l-0.116,0.384l-0.142,0.401l-9.151,24.805l-0.201,0.543
		l-0.192,0.375l-11.956,23.988l-0.108,0.234l-0.342,0.543l-14.111,22.435l-0.241,0.384l-0.209,0.284l-16.065,21.073l-0.258,0.334
		l-0.317,0.344l-18.001,19.345l-0.535,0.584l-0.034,0.024l-19.963,17.852l-0.083,0.076l-0.618,0.459l-21.382,15.664l-0.535,0.4
		l-0.175,0.099l-23.128,13.778l-0.159,0.091l-0.618,0.293l-24.23,11.464l-0.342,0.158l-0.442,0.166l-25.608,9.344l-0.518,0.193
		l-0.367,0.082l-26.634,6.773l-0.442,0.107l-0.443,0.066l-27.721,4.057l-0.626,0.084l-0.251,0.018H608.812z"/>
	<path fill="#FFFFFF" d="M495.691,233.172l-10.695,62.706l-94.975,61.101l-42.674-13.909l7.589-10.346l8.851-10.704l9.293-10.395
		l8.3-8.3l10.12-9.844l10.678-9.335l17.936-13.643l13.284-8.934l12.173-7.223l16.439-8.016l18.645-7.882L495.691,233.172z
		 M512.558,612.874l109.204,3.306l48.343,65.944l-39.001,68.958l-121.292-6.189l-52.854-73.799L512.558,612.874L512.558,612.874z
		 M631.104,605.065l31.219-76.922l90.19-32.889l40.461,59.548l-28.079,75.353l-83.962,40.946L631.104,605.065L631.104,605.065z
		 M805.391,561.274l-26.434,72.055l-0.444,2.095l22.145,24.214l4.634-5.494l4.309-5.845l5.266-8.007l8.334-12.883l7.406-13.342
		l6.896-15.405l5.335-13.918l4.859-14.336l3.064-10.395l2.087-9.427l-33.563,7.515L805.391,561.274z M352.716,633.329l-5.36,10.562
		l-13.227-22.443l-5.911-13.368l-6.796-13.358l-4.359-12.29l-4.007-10.471l-3.457-12.441l-2.588-12.657l-1.37-9.335l23.654,4.842
		l22.018,84.772L352.716,633.329z M475.452,509.815l-79.211-33.398l-54.431,62.704l21.634,91.034l82.627,31.512l53.494-57.369
		L475.452,509.815z M592.345,434.01l12.232-80.005l96.611-28.254l69.885,65.886l-23.37,87.936l-82.941,30.159l-72.417-66.22V434.01
		L592.345,434.01z M708.912,313.027l71.821,71.43l50.147-10.403l-3.457-6.405l-5.886-10.185l-14.611-22.136l-11.122-14.837
		l-15.071-16.522l-16.114-15.339l-13.585-10.678l-24.756-16.733l-20.021-11.456L708.912,313.027L708.912,313.027z M400.858,457.499
		l-1.637-91.044l93.448-59.682l94.917,47.241l-14.002,84.714l-90.268,54.907l-48.083-21.992L400.858,457.499L400.858,457.499z"/>
	<path d="M1471.01,749.996c0,199.111-80.706,379.357-211.185,509.836C1129.366,1390.309,949.102,1471.014,750,1471.014
		s-379.366-80.705-509.835-211.182C109.696,1129.354,28.99,949.107,28.99,749.996c0-199.102,80.706-379.357,211.175-509.826
		C370.643,109.692,550.898,28.986,750,28.986s379.349,80.698,509.825,211.175C1390.304,370.647,1471.01,550.894,1471.01,749.996
		L1471.01,749.996z M866.392,462.774l224.667,394.419h334.128c5.586-35.459,8.384-71.299,8.368-107.197
		c0-188.757-76.5-359.653-200.213-483.351c-18.336-18.334-37.695-35.616-57.987-51.759l-459.22,30.451l-23.896-11.422l-0.4-0.192
		l-0.451-0.167l-13.083-4.699l474.164-31.445c-49.138-35.864-102.854-64.992-159.716-86.609L654.273,221.366l-15.947-4.082
		l-0.367-0.091l-0.543-0.084l-21.475-3.215l347.621-113.411c-44.008-14.456-89.379-24.376-135.404-29.606L607.817,212.791
		l-27.179-1.493l-0.476-0.026l-0.484,0.026l-4.825,0.266L797.609,68.095c-40.964-2.838-82.097-2.013-122.913,2.462L533.991,215.413
		l-11.322,1.704l-0.458,0.076l-0.427,0.107l-21.183,5.419L644.538,74.541c-38.691,5.993-76.792,15.315-113.879,27.863
		l-55.173,128.74l-6.754,2.421l-0.26,0.101l-0.56,0.258l-17.742,8.359l56.2-131.137c-22.656,8.644-44.835,18.496-66.438,29.515
		L419.67,259.681l-0.06,0.034l-0.374,0.226l-0.367,0.276l-21.101,15.595l21.101-123.947c-15.935,8.838-31.509,18.311-46.683,28.397
		l3.132,115.606l-17.176,18.376l-0.301,0.326l-0.267,0.352l-0.66,0.859l-3.313-122.729c-15.071,10.742-29.7,22.089-43.853,34.017
		l15.446,135.636l-10.412,21.133l-0.133,0.266l-0.218,0.578l-4.407,11.764l-17.542-154.307
		c-8.822,7.945-17.436,16.116-25.834,24.506c-5.677,5.677-11.247,11.464-16.716,17.333l51.783,138.083l-3.832,14.428l-0.075,0.284
		l-0.101,0.635l-3.031,19.553l-58.964-157.237c-16.718,19.079-32.367,39.071-46.873,59.882L292.2,499.896l1.159,22.042l0.142,0.919
		l2.104,13.493L177.619,376.216c-14.45,22.07-27.604,44.959-39.401,68.556l175.815,156.804l0.392,1.043l0.209,0.566l0.107,0.219
		l11.749,23.988l0.149,0.3l0.351,0.551l14.112,22.436l0.249,0.384l0.218,0.283l0.258,0.343L129.693,462.491
		c-40.587,87.401-63.248,184.814-63.248,287.513c0,36.486,2.872,72.281,8.376,107.199h356.037l153.13-81.666l24.823-1.254
		l0.249-0.016l0.635-0.084l23.286-3.406l-162.089,86.416h103.752l73.801-89.84l16.481-4.191l0.367-0.082l0.518-0.193l15.264-5.578
		l-82.051,99.885h59.883l64.666-119.614l16.767-9.985l0.175-0.101l0.535-0.391l15.988-11.715l-76.665,141.816h47.199l49.347-158.631
		l6.177-5.527l0.034-0.026l0.535-0.576l18.001-19.345l0.309-0.342l0.261-0.333l3.848-5.061l-58.746,189.842h56.608l32.078-235.162
		l9.245-18.562l0.191-0.376l0.191-0.543l9.151-24.806l0.15-0.391l0.116-0.384l7.063-26.15l0.067-0.226l0.118-0.692l4.349-27.003
		l0.135-0.843v-0.159l1.403-27.987l0.033-0.442l-0.033-0.443l-1.403-27.561v-0.093l-0.135-0.868L866.392,462.774L866.392,462.774z
		 M1421.938,876.121H78.077c25.774,138.193,93.121,261.773,188.572,357.217c123.697,123.689,294.594,200.213,483.359,200.213
		c188.764,0,359.651-76.516,483.342-200.213C1328.81,1137.895,1396.164,1014.314,1421.938,876.121L1421.938,876.121z
		 M1069.358,857.193L876.72,519.024l100,338.169H1069.358z M957.05,857.193l-92.905-313.989l22.962,313.989H957.05z
		 M868.088,857.193l-15.642-216.016l-29.447,216.016H868.088z"/>
</g>
</svg>
